<svg id="Layer_5" data-name="Layer 5" xmlns="http://www.w3.org/2000/svg" viewBox="0 0 162.01 158.39"><defs><style>.cls-1{fill:#492e8c;}</style></defs><title>RevealPurple_Mark</title><path class="cls-1" d="M89.14,21.19l-59-.06H22.46a4.33,4.33,0,1,0,0,8.65H33.35l59.8.06h52.38a12.93,12.93,0,0,1,10.89,5.95A21.61,21.61,0,0,0,136,21.19Z" transform="translate(-0.85 -3.84)"/><path class="cls-1" d="M154.83,123.82l-41-32.48L106,85v0l-4.17-3.44c6.94-4,44.55-25.52,49.17-28.28,3.26-1.94,4.92-3.47,5.05-6.7,0-.2,0-.4,0-.61h0c0,.07,0,.14,0,.21,0-4.55-4.27-7.49-15.4-7.77H22.44a13,13,0,0,1,0-25.91h116.1a13,13,0,0,1,10.9,5.94A21.61,21.61,0,0,0,129,3.84H22.46a21.61,21.61,0,0,0,0,43.22H74.92l-7.4,4.29v0c-3.73,1.92-8.45,6.28,1.11,13.92v-.05a19.59,19.59,0,0,0,1.69,1.58L93.21,85.65l-.07.1,10.09,8.15.4.34h0l7.15,5.78,38.61,30.54h0a13,13,0,0,1-16.29,20.16L80.84,109.09,57.32,89.8a12.93,12.93,0,0,1-4.63-11.52,21.6,21.6,0,0,0,6.49,24.26l68.49,54.89a21.61,21.61,0,1,0,27.16-33.61ZM142.91,47.07a.43.43,0,0,1,.21.81L94.74,75.7l-7.18-5.92C96,65,116.14,53.4,127.11,47.07ZM73.15,57.91h0l19-10.85H109.7L80.42,63.9l-7.26-6" transform="translate(-0.85 -3.84)"/><path class="cls-1" d="M64.42,85l68.14,54.16,6,4.83a4.33,4.33,0,1,0,5.44-6.73l-81.41-65a12.93,12.93,0,0,1-4.63-11.52A21.62,21.62,0,0,0,64.42,85Z" transform="translate(-0.85 -3.84)"/></svg>